<svg width="120" height="120" viewBox="0 0 120 120" fill="none" xmlns="http://www.w3.org/2000/svg">
  <!-- Background Circle with Gradient -->
  <defs>
    <linearGradient id="bgGradient" x1="0%" y1="0%" x2="100%" y2="100%">
      <stop offset="0%" style="stop-color:#667eea;stop-opacity:1" />
      <stop offset="100%" style="stop-color:#764ba2;stop-opacity:1" />
    </linearGradient>
    <linearGradient id="checkeredGradient" x1="0%" y1="0%" x2="100%" y2="0%">
      <stop offset="0%" style="stop-color:#2ad17e;stop-opacity:1" />
      <stop offset="100%" style="stop-color:#20c997;stop-opacity:1" />
    </linearGradient>
    <linearGradient id="codeGradient" x1="0%" y1="0%" x2="100%" y2="100%">
      <stop offset="0%" style="stop-color:#ffb21e;stop-opacity:1" />
      <stop offset="100%" style="stop-color:#ff6b6b;stop-opacity:1" />
    </linearGradient>
  </defs>
  
  <!-- Main Circle Background -->
  <circle cx="60" cy="60" r="58" fill="url(#bgGradient)"/>
  
  <!-- Checkered Flag Pattern (Pit Stop Symbol) -->
  <g transform="translate(25, 30)">
    <!-- Flag pole -->
    <rect x="0" y="0" width="3" height="50" fill="#ffffff" opacity="0.9"/>
    
    <!-- Checkered flag -->
    <g transform="translate(3, 5)">
      <!-- Row 1 -->
      <rect x="0" y="0" width="8" height="8" fill="url(#checkeredGradient)"/>
      <rect x="8" y="0" width="8" height="8" fill="#ffffff" opacity="0.9"/>
      <rect x="16" y="0" width="8" height="8" fill="url(#checkeredGradient)"/>
      
      <!-- Row 2 -->
      <rect x="0" y="8" width="8" height="8" fill="#ffffff" opacity="0.9"/>
      <rect x="8" y="8" width="8" height="8" fill="url(#checkeredGradient)"/>
      <rect x="16" y="8" width="8" height="8" fill="#ffffff" opacity="0.9"/>
      
      <!-- Row 3 -->
      <rect x="0" y="16" width="8" height="8" fill="url(#checkeredGradient)"/>
      <rect x="8" y="16" width="8" height="8" fill="#ffffff" opacity="0.9"/>
      <rect x="16" y="16" width="8" height="8" fill="url(#checkeredGradient)"/>
      
      <!-- Flag wave effect -->
      <path d="M 24 0 Q 28 4 24 8 Q 28 12 24 16 Q 28 20 24 24" 
            stroke="#ffffff" 
            stroke-width="1" 
            fill="none" 
            opacity="0.3"/>
    </g>
  </g>
  
  <!-- Code Brackets Symbol -->
  <g transform="translate(55, 35)">
    <!-- Left bracket -->
    <path d="M 8 5 L 2 5 L 2 35 L 8 35" 
          stroke="url(#codeGradient)" 
          stroke-width="4" 
          stroke-linecap="round" 
          fill="none"/>
    
    <!-- Right bracket -->
    <path d="M 22 5 L 28 5 L 28 35 L 22 35" 
          stroke="url(#codeGradient)" 
          stroke-width="4" 
          stroke-linecap="round" 
          fill="none"/>
    
    <!-- Forward slash in middle -->
    <line x1="18" y1="10" x2="12" y2="30" 
          stroke="url(#codeGradient)" 
          stroke-width="3" 
          stroke-linecap="round"/>
  </g>
  
  <!-- Speed lines (pit stop motion) -->
  <g opacity="0.4">
    <line x1="15" y1="85" x2="35" y2="85" stroke="#ffffff" stroke-width="2" stroke-linecap="round"/>
    <line x1="20" y1="92" x2="40" y2="92" stroke="#ffffff" stroke-width="2" stroke-linecap="round"/>
    <line x1="15" y1="99" x2="35" y2="99" stroke="#ffffff" stroke-width="2" stroke-linecap="round"/>
  </g>
  
  <!-- Outer ring accent -->
  <circle cx="60" cy="60" r="58" fill="none" stroke="#ffffff" stroke-width="2" opacity="0.2"/>
</svg>
